<svg version="1.0" width="256" height="256" viewBox="0 0 192 192" xmlns="http://www.w3.org/2000/svg">
	<style>
		#favico {
			fill: #000
		}

		@media (prefers-color-scheme: dark) {
			fill: #fff;
		}
	</style>
	<g id="favico">
		<path d="M95.01 21.686c-.952-.015-1.603-.008-1.654.033v.002c-.02.02-1.149.08-2.5.162-1.353.061-2.97.226-3.585.328-.615.103-1.578.246-2.152.308-7.048.86-15.324 3.461-22.536 7.107-7.355 3.707-13.811 8.42-19.711 14.42-8.687 8.83-15.202 20.056-18.501 31.834-.533 1.905-1.557 6.556-1.74 7.785-.063.512-.165 1.147-.206 1.434-.04.287-.123 1.022-.205 1.637-.062.614-.164 1.456-.205 1.845-.348 2.848-.47 10.221-.225 12.597.062.553.163 1.72.225 2.56.061.84.164 1.68.205 1.844.04.164.143.82.205 1.434.082.615.265 1.741.43 2.5.142.757.329 1.679.39 2.048.205 1.229 1.536 6.105 2.17 8.01 5.574 16.55 16.475 30.275 31.493 39.718 7.089 4.464 17.802 8.644 24.83 9.71.39.06.862.144 1.026.185.594.164 3.072.511 6.249.86 1.802.204 11.78.203 13.83.018 3.564-.348 7.17-.961 11.268-1.883 1.31-.307 5.286-1.557 7.478-2.376 23.95-8.808 41.837-29.395 47.123-54.283.185-.84.37-1.72.43-1.945.083-.41.595-3.956.8-5.636.614-4.957.47-13.437-.309-18.23-.102-.615-.245-1.453-.306-1.842-.533-3.4-1.803-8.38-3.053-12.025-5.163-15.036-15.428-28.454-28.5-37.262-9.178-6.185-19.607-10.344-29.708-11.88-.45-.061-.86-.143-.921-.184-.061-.041-.861-.144-1.742-.205-.902-.082-1.68-.184-1.742-.205-.23-.138-5.796-.38-8.651-.423zm-1.78 4.286c3.003.013 8.977.137 9.407.214.287.04 1.024.144 1.64.205.614.082 1.35.184 1.639.225 4.425.696 8.05 1.535 11.575 2.682 22.763 7.415 40.24 25.873 46.284 48.835 1.044 4.015 1.782 8.05 2.11 11.738.307 3.298.143 12.843-.226 14.83-.143.676-.327 1.946-.45 2.827a45.34 45.34 0 01-.41 2.253c-.164.78-.348 1.66-.41 1.946-.164.82-1.74 6.372-2.07 7.273-.163.45-.49 1.33-.716 1.945-.246.615-.696 1.7-1.003 2.418-.328.716-.595 1.35-.595 1.412 0 .061-.595 1.29-1.332 2.746-5.532 10.917-13.625 20.074-23.767 26.875-2.54 1.72-7.6 4.526-9.937 5.55-.737.308-1.64.698-2.007.882-2.316 1.045-8.647 3.052-11.515 3.667-2.151.45-7.642 1.31-9.322 1.434-3.524.286-13.83.143-14.445-.226a21.07 21.07 0 00-1.188-.184c-11.207-1.331-22.988-6.165-32.515-13.355-3.647-2.745-4.63-3.585-7.478-6.453-1.885-1.885-2.561-2.622-4.528-4.896-.246-.287-1.21-1.536-2.132-2.765-5.635-7.518-9.834-16.347-11.964-25.093-.595-2.438-1.332-6.392-1.537-8.4-.062-.511-.165-1.515-.267-2.252-.308-2.684-.122-13.95.246-14.543.041-.062.123-.738.205-1.537.062-.779.165-1.475.206-1.537.04-.06.123-.531.205-1.023.225-1.557.859-4.282 1.639-6.966 6.76-23.536 25.118-41.685 48.905-48.322 2.643-.737 6.536-1.516 8.77-1.76.614-.083 1.229-.165 1.373-.206.143-.04 1.063-.143 2.047-.225.983-.082 1.824-.164 1.865-.185.026-.026.697-.034 1.698-.03z" />
		<path d="M95.405.007c-.02.02-1.66.08-3.627.163-1.967.062-3.913.164-4.303.226-.39.06-1.23.143-1.843.205-1.414.143-7.766 1.107-8.237 1.25-.205.06-.613.143-.921.204-.328.061-1.722.368-3.137.716-1.413.348-2.702.655-2.866.696-1.434.328-7.09 2.234-9.835 3.32-31.84 12.66-54.642 41.316-59.6 74.93-.472 3.094-.575 3.956-.739 6.045-.06.84-.164 1.986-.205 2.559-.123 1.31-.123 9.67 0 11.267.144 2.212.328 4.28.41 5.017.061.39.144 1.128.206 1.641.123 1.228.491 3.44.86 5.386.163.86.348 1.825.389 2.132.47 2.6 2.5 9.974 3.155 11.428.102.225.246.636.328.923.143.532 1.926 5.08 2.479 6.35 2.07 4.67 5.102 10.223 7.868 14.38 1.598 2.439 4.774 6.82 5.225 7.23.123.103.614.719 1.126 1.333.492.615.983 1.228 1.106 1.35.103.123.758.84 1.414 1.598 1.373 1.557 6.372 6.495 7.6 7.52.45.388.945.798 1.088.941.656.615 5.244 4.2 6.801 5.327 10.08 7.19 20.489 11.981 32.782 15.115 1.188.308 2.376.595 2.663.636.533.103 2.09.39 3.688.716 1.23.246 4.958.76 6.352.882 2.233.205 4.323.368 5.49.43 1.517.102 8.852.102 10.184 0 2.15-.144 4.323-.328 4.815-.389 3.114-.39 2.785-.348 5.736-.82 2.58-.43 3.073-.51 3.688-.655.287-.06.737-.164 1.024-.205a176.8 176.8 0 003.687-.921c9.26-2.396 18.318-6.289 26.33-11.349 9.772-6.186 16.593-12.23 24.522-21.774 1.086-1.311 3.976-5.325 5.349-7.415 6.556-10.078 11.084-20.996 13.563-32.754.287-1.393.574-2.869.635-3.279.062-.41.144-.962.205-1.25.041-.286.144-.88.185-1.31.06-.45.143-1.045.205-1.332.04-.286.144-1.188.226-1.966.06-.799.164-1.72.205-2.047.43-4.036.43-14.278-.02-17.105-.043-.287-.125-1.066-.207-1.74-.286-2.808-.41-3.71-.635-4.918a26.06 26.06 0 01-.184-1.23c-.062-.45-.164-.962-.205-1.126a14.696 14.696 0 01-.205-1.024c-.41-2.5-2.602-10.407-3.708-13.418-2.869-7.723-6.598-15.157-10.736-21.303-1.086-1.638-4.467-6.268-4.692-6.452-.082-.062-.534-.614-1.046-1.23-1.373-1.7-5.184-5.776-7.478-8.01-12.232-11.86-28.089-20.504-44.767-24.376-1.516-.348-2.99-.675-3.278-.716-3.196-.573-6.576-1.045-8.4-1.208-.737-.082-1.557-.164-1.844-.205-.287-.062-1.988-.144-3.79-.226-4.61-.163-5.04-.184-5.08-.163zm-3.052 4.28c.102-.081 9.2.062 10.49.185 4.404.41 8.359.962 10.489 1.453a38.2 38.2 0 002.008.41c2.663.45 8.216 2.071 12.498 3.627 9.69 3.523 19.259 9.116 27.516 16.1 2.315 1.946 8.44 8.01 10.203 10.079 6.372 7.476 11.74 16.202 15.284 24.846 1.066 2.602 2.624 6.904 3.034 8.44.164.554.53 1.906.818 2.971.307 1.065.594 2.171.635 2.458.062.287.225 1.025.39 1.64.306 1.31.554 2.579.615 3.174.02.225.103.655.164.942.185.696.552 3.277.675 4.69.062.615.143 1.23.184 1.373.205.594.41 5.613.41 9.587 0 5.02-.144 7.23-.738 11.88-.287 2.274-.43 3.073-1.126 6.76-.246 1.312-1.434 5.86-2.05 7.887-2.048 6.678-5.019 13.54-8.235 19.05-.984 1.7-4.63 7.335-5.307 8.195-.799 1.024-4.466 5.653-4.569 5.735-.06.06-.47.511-.9 1.023-5.45 6.288-13.728 13.235-20.961 17.598-8.4 5.039-16.267 8.357-25.384 10.65-3.626.923-6.045 1.413-8.688 1.761-.512.062-1.147.164-1.434.205-.287.04-.963.143-1.537.205-.553.061-1.351.164-1.74.206-3.914.49-16.66.49-18.646 0-.287-.063-.657-.124-3.074-.41a67.149 67.149 0 01-5.551-.943 111.14 111.14 0 00-2.357-.47c-1.168-.226-6.208-1.62-8.072-2.234-5.532-1.823-13.604-5.469-18.131-8.234-1.68-1.004-5.41-3.462-7.07-4.63-4.18-2.929-11.924-9.997-15.16-13.827-.739-.86-1.435-1.678-1.537-1.801-.123-.123-.903-1.108-1.763-2.173-6.393-8.05-11.68-17.882-14.916-27.653-.696-2.09-2.07-6.922-2.376-8.377a131.11 131.11 0 01-1.436-7.805 37.707 37.707 0 01-.203-1.844 31.58 31.58 0 00-.226-1.7c-.492-2.56-.492-15.691 0-18.313.041-.205.144-1.024.205-1.803.533-5.47 2.438-13.622 4.59-19.767 2.54-7.25 6.781-15.506 11.166-21.713 3.729-5.306 5.573-7.477 10.797-12.72 9.794-9.792 20.14-16.388 33.601-21.345 5.41-2.008 13.173-3.933 18.234-4.527.39-.04 1.128-.144 1.64-.205 1.803-.246 2.582-.327 5.02-.45 1.352-.082 2.48-.165 2.52-.185z" />
		<path d="M115.774 52.63c-.354.005-.703.018-1.049.041-4.384.328-8.605 1.866-12.252 4.467-2.377 1.7-44.48 43.917-45.852 45.986-3.217 4.814-4.488 9.935-3.894 15.773.184 1.864.963 4.733 1.783 6.617 3.749 8.542 12.046 13.928 21.39 13.908 3.461-.02 6.065-.573 9.22-1.946 4.057-1.762 3.483-1.23 27.045-24.765 21.84-21.816 22.823-22.86 24.544-25.975.656-1.188 2.294-5.53 2.09-5.53-.04 0 .02-.307.122-.676.43-1.413.595-5.264.329-7.415a23.249 23.249 0 00-10.285-16.572c-2.193-1.454-2.91-1.804-5.43-2.643-2.636-.878-5.287-1.3-7.761-1.27zm-.514 4.297c1.346.005 3.608.097 4.177.19 4.508.737 9.096 3.543 12.047 7.415 1.557 2.028 3.115 5.694 3.463 8.132.308 2.11.144 6.268-.328 8.03-.614 2.274-2.028 5.1-3.483 6.904-.655.82-4.014 4.301-7.456 7.722-5.983 5.96-6.25 6.186-6.126 5.428.184-1.147.12-6.186-.104-7.15l-.183-.818 4.527-4.569c4.855-4.876 5.695-5.981 6.515-8.541.656-2.07.636-5.777-.02-7.702-1.516-4.425-5.41-7.847-9.773-8.605-1.803-.307-4.55-.123-6.25.41-2.745.88-3.196 1.27-14.587 12.7-11.392 11.43-11.392 11.41-12.375 14.36-.574 1.7-.553 5.551.061 7.477.881 2.766 2.847 5.366 5.285 6.943 1.311.86 2.46 1.313 4.448 1.744l1.577.326-2.623 2.622-2.643 2.622-1.229-.512c-6.782-2.847-11.29-9.403-11.596-16.798-.144-3.093.594-6.471 1.966-9.216 1.394-2.786 2.684-4.22 13.42-14.872 9.364-9.3 10.798-10.673 12.252-11.512 2.684-1.557 4.65-2.213 8.093-2.704.149-.02.496-.028.945-.026zm.991 10.655a8.39 8.39 0 012.633.473c2.56.901 4.426 2.868 5.348 5.654.573 1.74.205 4.67-.82 6.433-.287.49-2.09 2.477-4.036 4.444l-3.502 3.564-.781-1.434c-1.556-2.868-3.953-5.715-6.453-7.6-1.168-.9-3.688-2.417-4.425-2.683-.287-.102.349-.84 3.217-3.706 1.988-1.967 4.034-3.812 4.568-4.12 1.268-.703 2.76-1.055 4.251-1.025zm-15.745 11.985s.553.227 1.229.493h.001c4.487 1.762 8.462 5.777 10.305 10.385 1.046 2.622 1.332 4.097 1.332 7.15 0 2.232-.104 3.113-.472 4.506-.615 2.294-1.802 4.814-3.196 6.74-1.413 1.966-20.755 21.263-22.64 22.594-1.68 1.188-3.36 2.027-5.327 2.683-1.926.635-2.662.758-5.223.86-7.191.287-13.83-3.544-17.313-9.976-.717-1.352-1.517-3.441-1.763-4.568-.04-.225-.163-.88-.266-1.434-.287-1.454-.143-5.694.246-7.272.717-2.908 1.905-5.244 3.83-7.64.657-.82 3.915-4.2 7.275-7.518 5.49-5.47 6.064-5.981 5.941-5.326-.246 1.393-.247 4.528.02 6.29l.247 1.801-4.384 4.405c-2.397 2.417-4.549 4.63-4.754 4.916-2.807 3.707-3.258 8.992-1.148 13.294 1.045 2.11 3.504 4.589 5.553 5.613 4.425 2.171 9.855 1.659 13.543-1.27 1.023-.84 6.577-6.33 15.837-15.712 5.163-5.203 5.717-5.858 6.393-7.25.983-2.029 1.373-3.607 1.373-5.676 0-3.482-1.168-6.411-3.607-8.992-1.823-1.905-5.593-3.748-7.724-3.77-.512 0-.329-.246 2.05-2.663 1.453-1.454 2.622-2.663 2.642-2.663zm-6.152 9.655a8.173 8.173 0 012.586.384c4.63 1.433 7.049 6.514 5.308 11.102-.43 1.106-.514 1.188-1.599 1.598-5.88 2.192-11.986-2.314-11.474-8.46.164-1.802.922-3.544 1.721-3.872 1.199-.484 2.34-.735 3.458-.752zm-18.208 14.742c.04-.02.307.47.594 1.045 2.09 4.158 5.634 7.763 9.834 10.037l1.557.84-3.585 3.524c-3.934 3.892-5.103 4.67-7.418 4.977-1.537.205-3.544-.103-4.916-.78-1.435-.695-3.279-2.578-3.914-4.033-1.086-2.438-.921-5.45.41-7.743.328-.574 2.13-2.561 3.995-4.446 1.865-1.885 3.423-3.42 3.443-3.42zm32.904-91.483c-.881.881-.922 1.865-.103 2.766.492.553.881.676 3.524 1.229 1.64.348 3.115.676 3.279.717.163.04.86.225 1.536.41 5.9 1.577 12.232 4.158 18.542 7.579 1.025.553 1.475.696 1.947.594.983-.205 1.495-.635 1.762-1.475.287-1.024-.103-1.885-1.21-2.581-.942-.574-5.121-2.725-7.109-3.626-5.511-2.499-13.317-4.978-18.726-5.96-2.377-.431-2.705-.39-3.442.347zm-30.59-.102c-7.273 1.557-13.604 3.728-19.77 6.76-5.328 2.622-6.332 3.277-6.537 4.342-.368 1.844 1.906 3.155 3.463 2.008.512-.39 5.573-2.95 7.314-3.687 5.368-2.376 9.548-3.728 15.326-5.019 3.974-.88 4.446-1.045 4.814-1.618.922-1.393.144-3.011-1.536-3.257-.287-.041-1.66.164-3.073.471zm2.254 163.812c-.553.205-1.004.717-1.229 1.414-.184.553-.164.82.123 1.434.471.962 1.004 1.167 4.18 1.597 1.413.185 2.847.39 3.175.43 4.16.615 14.363.492 19.67-.204 1.351-.185 2.827-.39 3.277-.45 1.373-.165 2.213-.677 2.54-1.558.267-.696.247-.86-.06-1.495-.574-1.209-1.599-1.475-4.057-1.004-.226.062-.943.144-1.578.205-.635.082-1.373.164-1.66.225-2.93.512-17.066.512-18.685 0-.143-.061-.717-.143-1.29-.204a30.136 30.136 0 01-2.131-.328c-1.189-.226-1.783-.246-2.275-.062zm-49.582-28.268c-.778.533-1.004.922-1.024 1.72 0 .984.676 1.885 4.302 5.613 2.52 2.602 4.119 4.097 6.557 6.146 1.065.901 1.987 1.68 2.049 1.74.286.329 2.847 2.172 5.122 3.729 5.204 3.523 6.208 3.933 7.335 3.093.778-.594 1.085-1.434.778-2.315-.164-.553-.533-.9-1.537-1.536-8.707-5.47-13.952-9.873-20.099-16.797-.614-.676-1.29-1.331-1.516-1.475-.615-.348-1.393-.328-1.967.082zm128.463-.328c-.533.103-1.045.512-2.049 1.66-1.455 1.638-6.187 6.411-7.478 7.538-3.688 3.216-7.704 6.206-11.228 8.357a46.812 46.812 0 00-2.459 1.598c-1.413 1.127-.573 3.564 1.27 3.605 1.414.041 9.733-5.674 15.08-10.365 3.033-2.642 8.503-8.357 9.097-9.484.779-1.475-.594-3.257-2.233-2.909zM11.279 94.541a2.979 2.979 0 00-.635.922c-.267.696-.082 6.207.328 9.71.061.512.143 1.25.184 1.638.533 5.695 3.77 18.129 5.081 19.399.779.758 1.987.696 2.828-.123.758-.778.758-1.332 0-3.646-1.25-3.77-2.295-7.6-2.766-10.099-.062-.287-.185-.983-.308-1.577a47.795 47.795 0 01-.348-2.049 24.87 24.87 0 00-.205-1.372c-.04-.205-.123-1.045-.205-1.844-.061-.799-.164-1.516-.205-1.577-.04-.061-.123-1.639-.184-3.482-.185-5.019-.185-5.121-.922-5.777-.779-.696-1.946-.758-2.643-.123zm167.391-.614c-.595.225-1.25.942-1.27 1.393-.021.184-.042.983-.083 1.782-.082 2.601-.327 6.432-.43 7.313-.492 3.83-1.004 7.005-1.536 9.258-.349 1.455-.656 2.889-.718 3.135-.061.266-.512 1.843-1.044 3.482-1.435 4.568-1.394 4.404-1.086 5.162.512 1.229 2.479 1.598 3.36.635.348-.39 1.495-3.462 2.07-5.551 1.208-4.302 2.232-8.85 2.458-10.755.082-.573.164-1.167.205-1.331.061-.164.143-.82.225-1.434.061-.614.143-1.352.184-1.639.205-1.536.39-4.752.39-7.415.02-2.97.02-3.032-.492-3.544-.574-.573-1.475-.778-2.233-.491zM31.132 40.668c-.922.368-5.49 6.493-8.36 11.205-2.663 4.322-6.904 13.335-7.272 15.424-.349 1.885 2.192 3.155 3.503 1.762.225-.246.758-1.332 1.168-2.397 2.889-7.395 7.13-14.81 11.904-20.832 1.967-2.458 2.11-2.745 1.987-3.687-.184-1.23-1.68-1.987-2.93-1.475zm127.664-.144c-1.004.553-1.352 2.049-.697 2.991.185.287.41.553.492.615.061.061 1.188 1.495 2.459 3.216 4.63 6.165 7.498 11.368 11.125 20.177.696 1.68 1.434 2.17 2.766 1.802 1.086-.287 1.72-1.475 1.413-2.622-.122-.41-.266-.86-.368-.963-.082-.122-.287-.614-.451-1.126-.738-2.151-3.545-7.969-5.389-11.164-1.229-2.13-3.872-6.227-4.814-7.477-2.582-3.38-4.364-5.51-4.754-5.613-.717-.184-1.25-.143-1.782.164z" />
	</g>
</svg>
