<svg version="1.0" width="16" height="16" viewBox="0 0 12 12" xmlns="http://www.w3.org/2000/svg">
	<path d="M8.153 3.824a1.636 1.636 0 00-1.159-.465 1.657 1.657 0 00-1.216.582c-.348.343-.698.687-1.045 1.035-.349.35-.697.704-1.04 1.064-.018.02-.026.031-.025.03a.162.162 0 00-.002.004c-.485.643-.387 1.568.197 2.113v.002l.002.002c.015.013.022.032.037.044l.004.004c.621.566 1.63.552 2.212-.078l-.006.008c.69-.671 1.37-1.35 2.043-2.04.576-.537.646-1.445.191-2.075a1.592 1.592 0 00-.193-.23zm-.266.295c.21.209.355.48.374.761.058.368-.105.693-.354.91-.15.122-.384.451-.491.435.002-.15-.097-.326.061-.403.224-.246.555-.457.533-.852.02-.51-.522-1.032-1.028-.977-.37.001-.564.33-.804.538-.29.308-.62.579-.875.919-.225.422.074 1.079.579 1.256.168.026-.047.127-.082.192-.141.064-.35-.184-.473-.285-.434-.446-.479-1.177-.084-1.542.387-.403.779-.802 1.191-1.179.16-.116.37-.169.582-.163.314-.002.634.154.871.39zm-.47.456c.12.117.16.315.062.497l-.008.014c-.098.146-.15.177-.24.274-.066.07-.172.061-.21-.016a1.644 1.644 0 00-.356-.357c-.081-.037-.09-.147-.017-.213.04-.037.015-.02.07-.076l.057-.057a.576.576 0 01.351-.17.373.373 0 01.291.104zm-.803.767c.342.333.51.845.355 1.245-.124.342-.435.542-.663.802-.27.252-.51.543-.811.757-.481.29-1.242.042-1.57-.508-.282-.44-.255-1.017.078-1.33.19-.198.383-.396.582-.586-.043.13.099.324-.012.41-.19.218-.454.382-.555.668-.16.459.21 1.076.725 1.189a.801.801 0 00.848-.28c.352-.357.715-.7 1.05-1.073.296-.396.039-1.097-.473-1.313-.273-.057.005-.14.053-.244.146.06.28.152.393.263zm-.345.38c.13.128.166.348.047.542a.166.166 0 01-.053.055c-.33.204-.726-.055-.636-.42a.338.338 0 01.098-.189l.02-.018a.374.374 0 01.192-.072l.013-.001a.38.38 0 01.32.103zm-1.328.912c.014.01.026.026.034.043.102.134.224.265.357.356.077.038.084.146.014.211-.097.09-.127.142-.273.24a.14.14 0 01-.013.008c-.291.156-.623-.04-.602-.354v-.023a.58.58 0 01.17-.328l.058-.057c.056-.054.037-.028.074-.068.052-.058.132-.066.181-.028z" />
	<path d="M6 2.25A3.75 3.75 0 002.25 6 3.75 3.75 0 006 9.75 3.75 3.75 0 009.75 6 3.75 3.75 0 006 2.25zM6 3a3 3 0 013 3 3 3 0 01-3 3 3 3 0 01-3-3 3 3 0 013-3z" />
	<path d="M6 0a6 6 0 00-6 6 6 6 0 006 6 6 6 0 006-6 6 6 0 00-6-6zm0 .75A5.25 5.25 0 0111.25 6 5.25 5.25 0 016 11.25 5.25 5.25 0 01.75 6 5.25 5.25 0 016 .75z" />
	<g transform="rotate(49.158 5.955 6.017) scale(.99532)">
		<g transform="translate(.01 .005)">
			<path d="M5.61 10.108a.418.418 0 00-.18.045c-.311.152-.196.645.155.659.19.018.384.024.575.02.175-.01.375.006.5-.137.214-.213.035-.582-.267-.586-.157.008-.313.019-.471.013-.103.001-.21-.02-.312-.014z" />
			<path d="M9.17 8.799a.358.358 0 00-.063.008c-.173.032-.266.177-.393.276-.115.101-.244.19-.368.281-.227.188-.105.578.205.609.193.03.332-.106.472-.206.149-.113.292-.235.424-.365.24-.212.031-.616-.277-.603z" />
			<path d="M2.778 8.799c-.29.013-.476.398-.244.603.132.13.274.252.422.365.14.1.28.236.473.205.31-.03.431-.42.204-.608-.124-.09-.25-.18-.366-.281-.127-.1-.221-.244-.394-.276a.36.36 0 00-.095-.008z" />
			<path d="M10.442 6.117c-.164.005-.327.106-.362.271-.022.147-.04.295-.075.44-.028.153-.115.302-.058.46.101.316.637.3.717-.022.054-.173.095-.35.125-.528.022-.164.076-.346-.049-.488a.354.354 0 00-.298-.133z" />
			<path d="M1.513 6.117a.351.351 0 00-.274.133c-.125.142-.07.324-.049.488.03.178.071.355.126.528.079.322.615.338.716.022.057-.158-.03-.307-.057-.46-.036-.145-.054-.293-.075-.44-.037-.174-.215-.276-.387-.271z" />
			<path d="M2.281 3.122a.336.336 0 00-.274.144 4.173 4.173 0 00-.304.46c-.079.148-.193.302-.126.476.09.28.519.32.673.076.072-.132.14-.267.225-.392.08-.136.214-.25.215-.416.01-.217-.206-.356-.409-.348z" />
			<path d="M9.648 3.098c-.262.002-.456.294-.322.52.086.124.174.247.247.379.085.133.123.3.276.384.295.178.69-.163.528-.456a4.106 4.106 0 00-.27-.477c-.097-.138-.181-.31-.375-.34a.37.37 0 00-.084-.01z" />
			<path d="M7.085 1.322c-.276.021-.465.378-.255.588.116.125.296.129.45.183.151.043.296.102.442.158.286.09.584-.202.458-.47-.069-.173-.262-.22-.424-.284a4.655 4.655 0 00-.55-.16.347.347 0 00-.121-.015z" />
			<path d="M4.865 1.322a.352.352 0 00-.092.014c-.187.043-.37.096-.55.161-.161.064-.355.111-.423.284-.127.268.171.56.457.47.146-.056.291-.115.442-.158.155-.054.336-.058.452-.183.218-.218.006-.591-.286-.588z" />
		</g>
	</g>
</svg>
